<svg width="32" height="32" viewBox="0 0 32 32" fill="none" xmlns="http://www.w3.org/2000/svg">
<rect x="0.00012207" width="32" height="32" rx="16" fill="#EDEDED"/>
<path d="M18.8002 15.3V11.8C18.8002 11.0574 18.5052 10.3452 17.9801 9.8201C17.455 9.295 16.7428 9 16.0002 9C15.2576 9 14.5454 9.295 14.0203 9.8201C13.4952 10.3452 13.2002 11.0574 13.2002 11.8V15.3M10.384 14.488C10.4122 14.1372 10.5715 13.8098 10.8301 13.5711C11.0888 13.3324 11.4279 13.1999 11.7798 13.2H20.2204C20.5724 13.1999 20.9115 13.3324 21.1701 13.5711C21.4288 13.8098 21.5881 14.1372 21.6162 14.488L22.1783 21.488C22.1938 21.6806 22.1692 21.8744 22.1061 22.057C22.043 22.2397 21.9428 22.4073 21.8117 22.5494C21.6807 22.6914 21.5217 22.8048 21.3446 22.8823C21.1676 22.9599 20.9765 22.9999 20.7832 23H11.217C11.0238 22.9999 10.8326 22.9599 10.6556 22.8823C10.4786 22.8048 10.3196 22.6914 10.1885 22.5494C10.0575 22.4073 9.95724 22.2397 9.89415 22.057C9.83106 21.8744 9.80647 21.6806 9.82193 21.488L10.384 14.488Z" stroke="#272727" stroke-width="2" stroke-linecap="round" stroke-linejoin="round"/>
</svg>
