<svg width="25" height="24" viewBox="0 0 25 24" fill="none" xmlns="http://www.w3.org/2000/svg">
<path d="M4.5 20C3.95 20 3.479 19.804 3.087 19.412C2.695 19.02 2.49934 18.5493 2.5 18V6C2.5 5.45 2.696 4.979 3.088 4.587C3.48 4.195 3.95067 3.99934 4.5 4H20.5C21.05 4 21.521 4.196 21.913 4.588C22.305 4.98 22.5007 5.45067 22.5 6V18C22.5 18.55 22.304 19.021 21.912 19.413C21.52 19.805 21.0493 20.0007 20.5 20H4.5ZM20.5 8L13.025 12.675C12.9417 12.725 12.854 12.7627 12.762 12.788C12.67 12.8133 12.5827 12.8257 12.5 12.825C12.4167 12.825 12.329 12.8127 12.237 12.788C12.145 12.7633 12.0577 12.7257 11.975 12.675L4.5 8V18H20.5V8ZM12.5 11L20.5 6H4.5L12.5 11ZM4.5 8.25V6.775V6.8V6.788V8.25Z" fill="#353535"/>
</svg>
