<svg width="32" height="33" viewBox="0 0 32 33" fill="none" xmlns="http://www.w3.org/2000/svg">
<path d="M25.2 27.5667L17.7333 20.1C17.0667 20.6333 16.3 21.0556 15.4333 21.3667C14.5667 21.6778 13.6444 21.8333 12.6667 21.8333C10.2444 21.8333 8.19467 20.9942 6.51733 19.316C4.84 17.6378 4.00089 15.588 4 13.1667C4 10.7444 4.83911 8.69467 6.51733 7.01733C8.19556 5.34 10.2453 4.50089 12.6667 4.5C15.0889 4.5 17.1387 5.33911 18.816 7.01733C20.4933 8.69556 21.3324 10.7453 21.3333 13.1667C21.3333 14.1444 21.1778 15.0667 20.8667 15.9333C20.5556 16.8 20.1333 17.5667 19.6 18.2333L27.1 25.7333C27.3444 25.9778 27.4667 26.2778 27.4667 26.6333C27.4667 26.9889 27.3333 27.3 27.0667 27.5667C26.8222 27.8111 26.5111 27.9333 26.1333 27.9333C25.7556 27.9333 25.4444 27.8111 25.2 27.5667ZM12.6667 19.1667C14.3333 19.1667 15.7502 18.5831 16.9173 17.416C18.0844 16.2489 18.6676 14.8324 18.6667 13.1667C18.6667 11.5 18.0831 10.0831 16.916 8.916C15.7489 7.74889 14.3324 7.16578 12.6667 7.16667C11 7.16667 9.58311 7.75022 8.416 8.91733C7.24889 10.0844 6.66578 11.5009 6.66667 13.1667C6.66667 14.8333 7.25022 16.2502 8.41733 17.4173C9.58444 18.5844 11.0009 19.1676 12.6667 19.1667Z" fill="#353535"/>
</svg>
